{
  "accessors": [
    {
      "bufferView": 2,
      "componentType": 5126,
      "count": 1630,
      "max": [
        100,
        100,
        100
      ],
      "min": [
        -100,
        -100,
        -100
      ],
      "type": "VEC3"
    },
    {
      "bufferView": 2,
      "byteOffset": 19560,
      "componentType": 5126,
      "count": 1630,
      "max": [
        1,
        1,
        1
      ],
      "min": [
        -1,
        -1,
        -1
      ],
      "type": "VEC3"
    },
    {
      "bufferView": 3,
      "componentType": 5126,
      "count": 1630,
      "max": [
        0.80836910009384155,
        0.9999045729637146,
        0.99376487731933594,
        -1
      ],
      "min": [
        -0.92427480220794678,
        -0.34723305702209473,
        -0.9999767541885376,
        -1
      ],
      "type": "VEC4"
    },
    {
      "bufferView": 3,
      "byteOffset": 26080,
      "componentType": 5126,
      "count": 1630,
      "max": [
        1,
        1,
        1,
        1
      ],
      "min": [
        1,
        1,
        1,
        1
      ],
      "type": "VEC4"
    },
    {
      "bufferView": 1,
      "componentType": 5126,
      "count": 1630,
      "max": [
        0.75126492977142334,
        0.99977576732635498
      ],
      "min": [
        8.3833932876586914e-05,
        5.7280063629150391e-05
      ],
      "type": "VEC2"
    },
    {
      "bufferView": 0,
      "componentType": 5125,
      "count": 9216,
      "max": [
        1629
      ],
      "min": [
        0
      ],
      "type": "SCALAR"
    },
    {
      "bufferView": 2,
      "byteOffset": 39120,
      "componentType": 5126,
      "count": 1009,
      "max": [
        0.49940001964569092,
        0.5,
        0.5
      ],
      "min": [
        -0.5,
        -0.5,
        -0.5
      ],
      "type": "VEC3"
    },
    {
      "bufferView": 2,
      "byteOffset": 51228,
      "componentType": 5126,
      "count": 1009,
      "max": [
        1,
        1,
        1
      ],
      "min": [
        -1,
        -0.9996294379234314,
        -1
      ],
      "type": "VEC3"
    },
    {
      "bufferView": 3,
      "byteOffset": 52160,
      "componentType": 5126,
      "count": 1009,
      "max": [
        0.99997591972351074,
        0.99999219179153442,
        0.99890011548995972,
        -1
      ],
      "min": [
        -0.99999666213989258,
        -0.99999874830245972,
        -0.9999738335609436,
        -1
      ],
      "type": "VEC4"
    },
    {
      "bufferView": 3,
      "byteOffset": 68304,
      "componentType": 5126,
      "count": 1009,
      "max": [
        1,
        1,
        1,
        1
      ],
      "min": [
        1,
        1,
        1,
        1
      ],
      "type": "VEC4"
    },
    {
      "bufferView": 1,
      "byteOffset": 13040,
      "componentType": 5126,
      "count": 1009,
      "max": [
        0.99989229440689087,
        0.99992531538009644
      ],
      "min": [
        2.5645811547292396e-05,
        0.074028551578521729
      ],
      "type": "VEC2"
    },
    {
      "bufferView": 0,
      "byteOffset": 36864,
      "componentType": 5125,
      "count": 2856,
      "max": [
        1008
      ],
      "min": [
        0
      ],
      "type": "SCALAR"
    }
  ],
  "asset": {
    "extras": {
      "author": "yezzey (https://sketchfab.com/yezzey)",
      "license": "CC-BY-4.0 (http://creativecommons.org/licenses/by/4.0/)",
      "source": "https://sketchfab.com/models/42140a29ce224e33a3e96c3e4963c4e3",
      "title": "Thinking Emoji"
    },
    "generator": "Sketchfab-3.18.5",
    "version": "2.0"
  },
  "bufferViews": [
    {
      "buffer": 0,
      "byteLength": 48288,
      "byteOffset": 0,
      "name": "floatBufferViews",
      "target": 34963
    },
    {
      "buffer": 0,
      "byteLength": 21112,
      "byteOffset": 48288,
      "byteStride": 8,
      "name": "floatBufferViews",
      "target": 34962
    },
    {
      "buffer": 0,
      "byteLength": 63336,
      "byteOffset": 69400,
      "byteStride": 12,
      "name": "floatBufferViews",
      "target": 34962
    },
    {
      "buffer": 0,
      "byteLength": 84448,
      "byteOffset": 132736,
      "byteStride": 16,
      "name": "floatBufferViews",
      "target": 34962
    }
  ],
  "buffers": [
    {
      "byteLength": 217184,
      "uri": "scene.bin"
    }
  ],
  "images": [
    {
      "uri": "textures/Material_215_baseColor.png"
    },
    {
      "uri": "textures/Material_217_baseColor.png"
    }
  ],
  "materials": [
    {
      "doubleSided": true,
      "emissiveFactor": [
        0,
        0,
        0
      ],
      "name": "Material_215",
      "pbrMetallicRoughness": {
        "baseColorFactor": [
          1,
          1,
          1,
          1
        ],
        "baseColorTexture": {
          "index": 0,
          "texCoord": 0
        },
        "metallicFactor": 0,
        "roughnessFactor": 0.93816163679999998
      }
    },
    {
      "doubleSided": true,
      "emissiveFactor": [
        0,
        0,
        0
      ],
      "name": "Material_217",
      "pbrMetallicRoughness": {
        "baseColorFactor": [
          1,
          1,
          1,
          1
        ],
        "baseColorTexture": {
          "index": 1,
          "texCoord": 0
        },
        "metallicFactor": 0,
        "roughnessFactor": 0.96912404480000003
      }
    }
  ],
  "meshes": [
    {
      "name": "node_id173_Material_215_0",
      "primitives": [
        {
          "attributes": {
            "COLOR_0": 3,
            "NORMAL": 1,
            "POSITION": 0,
            "TANGENT": 2,
            "TEXCOORD_0": 4
          },
          "indices": 5,
          "material": 0,
          "mode": 4
        }
      ]
    },
    {
      "name": "node_id173_Material_217_0",
      "primitives": [
        {
          "attributes": {
            "COLOR_0": 9,
            "NORMAL": 7,
            "POSITION": 6,
            "TANGENT": 8,
            "TEXCOORD_0": 10
          },
          "indices": 11,
          "material": 1,
          "mode": 4
        }
      ]
    }
  ],
  "nodes": [
    {
      "children": [
        1
      ],
      "name": "RootNode (gltf orientation matrix)",
      "rotation": [
        -0.70710678118654746,
        -0,
        -0,
        0.70710678118654757
      ]
    },
    {
      "children": [
        2
      ],
      "name": "RootNode (model correction matrix)"
    },
    {
      "children": [
        3
      ],
      "matrix": [
        1,
        0,
        0,
        0,
        0,
        0,
        1,
        0,
        0,
        -1,
        0,
        0,
        0,
        0,
        0,
        1
      ],
      "name": "744ac37595644904a14a6cbfdd4bfdf7.fbx"
    },
    {
      "children": [
        4
      ],
      "name": "RootNode"
    },
    {
      "children": [
        5,
        7
      ],
      "matrix": [
        0.00079596531577408314,
        0,
        0,
        0,
        0,
        0.00079596531577408314,
        0,
        0,
        0,
        0,
        0.00079596531577408314,
        0,
        -0.020296128466725349,
        0.040987659245729446,
        0.34281054139137268,
        1
      ],
      "name": "node_id173"
    },
    {
      "children": [
        6
      ],
      "matrix": [
        1.3601298332214355,
        0,
        -0,
        0,
        0,
        1.3554089069366455,
        0,
        0,
        0,
        0,
        1.3554089069366455,
        0,
        0,
        5.3414993286132812,
        -9.519775390625,
        1
      ],
      "name": ""
    },
    {
      "mesh": 0,
      "name": "node_id173_Material_215_0"
    },
    {
      "children": [
        8
      ],
      "name": "node_id173"
    },
    {
      "children": [
        9
      ],
      "matrix": [
        149.39065551757812,
        0,
        -0,
        0,
        0,
        136.74319458007812,
        0,
        0,
        0,
        0,
        34.722873687744141,
        0,
        -23.586013793945312,
        -72.51080322265625,
        127.69924926757812,
        1
      ],
      "name": ""
    },
    {
      "mesh": 1,
      "name": "node_id173_Material_217_0"
    }
  ],
  "samplers": [
    {
      "magFilter": 9729,
      "minFilter": 9987,
      "wrapS": 10497,
      "wrapT": 10497
    }
  ],
  "scene": 0,
  "scenes": [
    {
      "name": "OSG_Scene",
      "nodes": [
        0
      ]
    }
  ],
  "textures": [
    {
      "sampler": 0,
      "source": 0
    },
    {
      "sampler": 0,
      "source": 1
    }
  ]
}

